<svg xmlns="http://www.w3.org/2000/svg" xmlns:xlink="http://www.w3.org/1999/xlink" xmlns:s="https://github.com/nturley/netlistsvg" width="594" height="821">
  <style>svg {
    stroke:#000;
    fill:none;
  }
  text {
    fill:#000;
    stroke:none;
    font-size:10px;
    font-weight: bold;
    font-family: "Courier New", monospace;
  }
  .nodelabel {
    text-anchor: middle;
  }
  .inputPortLabel {
    text-anchor: end;
  }
  .splitjoinBody {
    fill:#000;
  }</style>
  <g s:type="inputExt" transform="translate(189,767)" s:width="30" s:height="20">
    <text x="15" y="-4" class="nodelabel" s:attribute="ref">clk</text>
    <s:alias val="$_inputExt_"/>
    <path d="M0,0 L0,20 L15,20 L30,10 L15,0 Z"/>
    <g s:x="28" s:y="10" s:pid="Y"/>
  </g>
  <g s:type="outputExt" transform="translate(540,170)" s:width="30" s:height="20">
    <text x="15" y="-4" class="nodelabel" s:attribute="ref">data</text>
    <s:alias val="$_outputExt_"/>
    <path d="M30,0 L30,20 L15,20 L0,10 L15,0 Z"/>
    <g s:x="0" s:y="10" s:pid="A"/>
  </g>
  <g s:type="dff" transform="translate(420,215)" s:width="30" s:height="40">
    <s:alias val="$dff"/>
    <s:alias val="$_DFF_"/>
    <rect width="30" height="40" x="0" y="0"/>
    <path d="M0,35 L5,30 L0,25"/>
    <g s:x="30" s:y="10" s:pid="Q"/>
    <g s:x="0" s:y="30" s:pid="CLK"/>
    <g s:x="0" s:y="10" s:pid="D"/>
  </g>
  <g s:type="generic" transform="translate(270,16)" s:width="30" s:height="40">
    <text x="15" y="-4" class="nodelabel" s:attribute="ref">$shiftx</text>
    <rect width="30" height="40" s:generic="body"/>
    <g transform="translate(0,10)" s:x="0" s:y="10" s:pid="in0">
      <text x="-3" y="-4" class="inputPortLabel">A</text>
    </g>
    <g transform="translate(0,30)" s:x="0" s:y="10" s:pid="in0">
      <text x="-3" y="-4" class="inputPortLabel">B</text>
    </g>
    <g transform="translate(30,10)" s:x="30" s:y="10" s:pid="out0">
      <text x="5" y="-4" style="fill:#000; stroke:none">Y</text>
    </g>
  </g>
  <g s:type="generic" transform="translate(270,98)" s:width="30" s:height="40">
    <text x="15" y="-4" class="nodelabel" s:attribute="ref">$shiftx</text>
    <rect width="30" height="40" s:generic="body"/>
    <g transform="translate(0,10)" s:x="0" s:y="10" s:pid="in0">
      <text x="-3" y="-4" class="inputPortLabel">A</text>
    </g>
    <g transform="translate(0,30)" s:x="0" s:y="10" s:pid="in0">
      <text x="-3" y="-4" class="inputPortLabel">B</text>
    </g>
    <g transform="translate(30,10)" s:x="30" s:y="10" s:pid="out0">
      <text x="5" y="-4" style="fill:#000; stroke:none">Y</text>
    </g>
  </g>
  <g s:type="generic" transform="translate(270,180)" s:width="30" s:height="40">
    <text x="15" y="-4" class="nodelabel" s:attribute="ref">$shiftx</text>
    <rect width="30" height="40" s:generic="body"/>
    <g transform="translate(0,10)" s:x="0" s:y="10" s:pid="in0">
      <text x="-3" y="-4" class="inputPortLabel">A</text>
    </g>
    <g transform="translate(0,30)" s:x="0" s:y="10" s:pid="in0">
      <text x="-3" y="-4" class="inputPortLabel">B</text>
    </g>
    <g transform="translate(30,10)" s:x="30" s:y="10" s:pid="out0">
      <text x="5" y="-4" style="fill:#000; stroke:none">Y</text>
    </g>
  </g>
  <g s:type="generic" transform="translate(270,264.5)" s:width="30" s:height="40">
    <text x="15" y="-4" class="nodelabel" s:attribute="ref">$shiftx</text>
    <rect width="30" height="40" s:generic="body"/>
    <g transform="translate(0,10)" s:x="0" s:y="10" s:pid="in0">
      <text x="-3" y="-4" class="inputPortLabel">A</text>
    </g>
    <g transform="translate(0,30)" s:x="0" s:y="10" s:pid="in0">
      <text x="-3" y="-4" class="inputPortLabel">B</text>
    </g>
    <g transform="translate(30,10)" s:x="30" s:y="10" s:pid="out0">
      <text x="5" y="-4" style="fill:#000; stroke:none">Y</text>
    </g>
  </g>
  <g s:type="generic" transform="translate(270,387)" s:width="30" s:height="40">
    <text x="15" y="-4" class="nodelabel" s:attribute="ref">$shiftx</text>
    <rect width="30" height="40" s:generic="body"/>
    <g transform="translate(0,10)" s:x="0" s:y="10" s:pid="in0">
      <text x="-3" y="-4" class="inputPortLabel">A</text>
    </g>
    <g transform="translate(0,30)" s:x="0" s:y="10" s:pid="in0">
      <text x="-3" y="-4" class="inputPortLabel">B</text>
    </g>
    <g transform="translate(30,10)" s:x="30" s:y="10" s:pid="out0">
      <text x="5" y="-4" style="fill:#000; stroke:none">Y</text>
    </g>
  </g>
  <g s:type="generic" transform="translate(270,469)" s:width="30" s:height="40">
    <text x="15" y="-4" class="nodelabel" s:attribute="ref">$shiftx</text>
    <rect width="30" height="40" s:generic="body"/>
    <g transform="translate(0,10)" s:x="0" s:y="10" s:pid="in0">
      <text x="-3" y="-4" class="inputPortLabel">A</text>
    </g>
    <g transform="translate(0,30)" s:x="0" s:y="10" s:pid="in0">
      <text x="-3" y="-4" class="inputPortLabel">B</text>
    </g>
    <g transform="translate(30,10)" s:x="30" s:y="10" s:pid="out0">
      <text x="5" y="-4" style="fill:#000; stroke:none">Y</text>
    </g>
  </g>
  <g s:type="generic" transform="translate(270,551)" s:width="30" s:height="40">
    <text x="15" y="-4" class="nodelabel" s:attribute="ref">$shiftx</text>
    <rect width="30" height="40" s:generic="body"/>
    <g transform="translate(0,10)" s:x="0" s:y="10" s:pid="in0">
      <text x="-3" y="-4" class="inputPortLabel">A</text>
    </g>
    <g transform="translate(0,30)" s:x="0" s:y="10" s:pid="in0">
      <text x="-3" y="-4" class="inputPortLabel">B</text>
    </g>
    <g transform="translate(30,10)" s:x="30" s:y="10" s:pid="out0">
      <text x="5" y="-4" style="fill:#000; stroke:none">Y</text>
    </g>
  </g>
  <g s:type="generic" transform="translate(270,633)" s:width="30" s:height="40">
    <text x="15" y="-4" class="nodelabel" s:attribute="ref">$shiftx</text>
    <rect width="30" height="40" s:generic="body"/>
    <g transform="translate(0,10)" s:x="0" s:y="10" s:pid="in0">
      <text x="-3" y="-4" class="inputPortLabel">A</text>
    </g>
    <g transform="translate(0,30)" s:x="0" s:y="10" s:pid="in0">
      <text x="-3" y="-4" class="inputPortLabel">B</text>
    </g>
    <g transform="translate(30,10)" s:x="30" s:y="10" s:pid="out0">
      <text x="5" y="-4" style="fill:#000; stroke:none">Y</text>
    </g>
  </g>
  <g s:type="dff" transform="translate(420,634)" s:width="30" s:height="40">
    <s:alias val="$dff"/>
    <s:alias val="$_DFF_"/>
    <rect width="30" height="40" x="0" y="0"/>
    <path d="M0,35 L5,30 L0,25"/>
    <g s:x="30" s:y="10" s:pid="Q"/>
    <g s:x="0" s:y="30" s:pid="CLK"/>
    <g s:x="0" s:y="10" s:pid="D"/>
  </g>
  <g s:type="add" transform="translate(195.33333333333334,703)" s:width="25" s:height="25">
    <s:alias val="$add"/>
    <circle r="12.5" cx="12.5" cy="12.5"/>
    <line x1="7.5" x2="17.5" y1="12.5" y2="12.5"/>
    <line x1="12.5" x2="12.5" y1="7.5" y2="17.5"/>
    <g s:x="3" s:y="5" s:pid="A"/>
    <g s:x="3" s:y="20" s:pid="B"/>
    <g s:x="25" s:y="12.5" s:pid="Y"/>
  </g>
  <g s:type="dff" transform="translate(275,705.5)" s:width="30" s:height="40">
    <s:alias val="$dff"/>
    <s:alias val="$_DFF_"/>
    <rect width="30" height="40" x="0" y="0"/>
    <path d="M0,35 L5,30 L0,25"/>
    <g s:x="30" s:y="10" s:pid="Q"/>
    <g s:x="0" s:y="30" s:pid="CLK"/>
    <g s:x="0" s:y="10" s:pid="D"/>
  </g>
  <g s:type="mux" transform="translate(485,160)" s:width="20" s:height="40">
    <s:alias val="$pmux"/>
    <s:alias val="$mux"/>
    <s:alias val="$_MUX_"/>
    <path d="M0,0 L20,10 L20,30 L0,40 Z"/>
    <g s:x="0" s:y="10" s:pid="A"/>
    <g s:x="0" s:y="30" s:pid="B"/>
    <g s:x="10" s:y="35" s:pid="S"/>
    <g s:x="20" s:y="20" s:pid="Y"/>
  </g>
  <g s:type="constant" transform="translate(189,265)" s:width="30" s:height="20">
    <text x="15" y="-4" class="nodelabel" s:attribute="ref">0x81</text>
    <s:alias val="$_constant_"/>
    <rect width="30" height="20"/>
    <g s:x="30" s:y="10" s:pid="Y"/>
  </g>
  <g s:type="constant" transform="translate(124,713)" s:width="30" s:height="20">
    <text x="15" y="-4" class="nodelabel" s:attribute="ref">1</text>
    <s:alias val="$_constant_"/>
    <rect width="30" height="20"/>
    <g s:x="30" s:y="10" s:pid="Y"/>
  </g>
  <g s:type="constant" transform="translate(420,160)" s:width="30" s:height="20">
    <text x="15" y="-4" class="nodelabel" s:attribute="ref">0x1</text>
    <s:alias val="$_constant_"/>
    <rect width="30" height="20"/>
    <g s:x="30" s:y="10" s:pid="Y"/>
  </g>
  <g s:type="join" transform="translate(369,204.5)" s:width="4" s:height="40">
    <rect width="5" height="160" class="splitjoinBody" s:generic="body"/>
    <s:alias val="$_join_"/>
    <g s:x="5" s:y="20" s:pid="out"/>
    <g transform="translate(0,10)" s:x="0" s:y="10" s:pid="in0">
      <text x="-3" y="-4" class="inputPortLabel">0</text>
    </g>
    <g transform="translate(0,30)" s:x="0" s:y="10" s:pid="in0">
      <text x="-3" y="-4" class="inputPortLabel">1</text>
    </g>
    <g transform="translate(0,50)" s:x="0" s:y="10" s:pid="in0">
      <text x="-3" y="-4" class="inputPortLabel">2</text>
    </g>
    <g transform="translate(0,70)" s:x="0" s:y="10" s:pid="in0">
      <text x="-3" y="-4" class="inputPortLabel">3</text>
    </g>
    <g transform="translate(0,90)" s:x="0" s:y="10" s:pid="in0">
      <text x="-3" y="-4" class="inputPortLabel">4</text>
    </g>
    <g transform="translate(0,110)" s:x="0" s:y="10" s:pid="in0">
      <text x="-3" y="-4" class="inputPortLabel">5</text>
    </g>
    <g transform="translate(0,130)" s:x="0" s:y="10" s:pid="in0">
      <text x="-3" y="-4" class="inputPortLabel">6</text>
    </g>
    <g transform="translate(0,150)" s:x="0" s:y="10" s:pid="in0">
      <text x="-3" y="-4" class="inputPortLabel">7</text>
    </g>
  </g>
  <g s:type="join" transform="translate(208,26)" s:width="4" s:height="40">
    <rect width="5" height="40" class="splitjoinBody" s:generic="body"/>
    <s:alias val="$_join_"/>
    <g s:x="5" s:y="20" s:pid="out"/>
    <g transform="translate(0,10)" s:x="0" s:y="10" s:pid="in0">
      <text x="-3" y="-4" class="inputPortLabel">0:1</text>
    </g>
  </g>
  <g s:type="join" transform="translate(135,16)" s:width="4" s:height="40">
    <rect width="5" height="40" class="splitjoinBody" s:generic="body"/>
    <s:alias val="$_join_"/>
    <g s:x="5" s:y="20" s:pid="out"/>
    <g transform="translate(0,10)" s:x="0" s:y="10" s:pid="in0">
      <text x="-3" y="-4" class="inputPortLabel">0</text>
    </g>
    <g transform="translate(0,30)" s:x="0" s:y="10" s:pid="in0">
      <text x="-3" y="-4" class="inputPortLabel">1</text>
    </g>
  </g>
  <g s:type="join" transform="translate(208,108)" s:width="4" s:height="40">
    <rect width="5" height="40" class="splitjoinBody" s:generic="body"/>
    <s:alias val="$_join_"/>
    <g s:x="5" s:y="20" s:pid="out"/>
    <g transform="translate(0,10)" s:x="0" s:y="10" s:pid="in0">
      <text x="-3" y="-4" class="inputPortLabel">0:1</text>
    </g>
  </g>
  <g s:type="join" transform="translate(135,98)" s:width="4" s:height="40">
    <rect width="5" height="40" class="splitjoinBody" s:generic="body"/>
    <s:alias val="$_join_"/>
    <g s:x="5" s:y="20" s:pid="out"/>
    <g transform="translate(0,10)" s:x="0" s:y="10" s:pid="in0">
      <text x="-3" y="-4" class="inputPortLabel">0</text>
    </g>
    <g transform="translate(0,30)" s:x="0" s:y="10" s:pid="in0">
      <text x="-3" y="-4" class="inputPortLabel">1</text>
    </g>
  </g>
  <g s:type="join" transform="translate(208,190)" s:width="4" s:height="40">
    <rect width="5" height="40" class="splitjoinBody" s:generic="body"/>
    <s:alias val="$_join_"/>
    <g s:x="5" s:y="20" s:pid="out"/>
    <g transform="translate(0,10)" s:x="0" s:y="10" s:pid="in0">
      <text x="-3" y="-4" class="inputPortLabel">0:1</text>
    </g>
  </g>
  <g s:type="join" transform="translate(135,180)" s:width="4" s:height="40">
    <rect width="5" height="40" class="splitjoinBody" s:generic="body"/>
    <s:alias val="$_join_"/>
    <g s:x="5" s:y="20" s:pid="out"/>
    <g transform="translate(0,10)" s:x="0" s:y="10" s:pid="in0">
      <text x="-3" y="-4" class="inputPortLabel">0</text>
    </g>
    <g transform="translate(0,30)" s:x="0" s:y="10" s:pid="in0">
      <text x="-3" y="-4" class="inputPortLabel">1</text>
    </g>
  </g>
  <g s:type="join" transform="translate(208,320)" s:width="4" s:height="40">
    <rect width="5" height="40" class="splitjoinBody" s:generic="body"/>
    <s:alias val="$_join_"/>
    <g s:x="5" s:y="20" s:pid="out"/>
    <g transform="translate(0,10)" s:x="0" s:y="10" s:pid="in0">
      <text x="-3" y="-4" class="inputPortLabel">0:1</text>
    </g>
  </g>
  <g s:type="join" transform="translate(135,310)" s:width="4" s:height="40">
    <rect width="5" height="40" class="splitjoinBody" s:generic="body"/>
    <s:alias val="$_join_"/>
    <g s:x="5" s:y="20" s:pid="out"/>
    <g transform="translate(0,10)" s:x="0" s:y="10" s:pid="in0">
      <text x="-3" y="-4" class="inputPortLabel">0</text>
    </g>
    <g transform="translate(0,30)" s:x="0" s:y="10" s:pid="in0">
      <text x="-3" y="-4" class="inputPortLabel">1</text>
    </g>
  </g>
  <g s:type="join" transform="translate(208,397)" s:width="4" s:height="40">
    <rect width="5" height="40" class="splitjoinBody" s:generic="body"/>
    <s:alias val="$_join_"/>
    <g s:x="5" s:y="20" s:pid="out"/>
    <g transform="translate(0,10)" s:x="0" s:y="10" s:pid="in0">
      <text x="-3" y="-4" class="inputPortLabel">0:1</text>
    </g>
  </g>
  <g s:type="join" transform="translate(135,387)" s:width="4" s:height="40">
    <rect width="5" height="40" class="splitjoinBody" s:generic="body"/>
    <s:alias val="$_join_"/>
    <g s:x="5" s:y="20" s:pid="out"/>
    <g transform="translate(0,10)" s:x="0" s:y="10" s:pid="in0">
      <text x="-3" y="-4" class="inputPortLabel">0</text>
    </g>
    <g transform="translate(0,30)" s:x="0" s:y="10" s:pid="in0">
      <text x="-3" y="-4" class="inputPortLabel">1</text>
    </g>
  </g>
  <g s:type="join" transform="translate(208,479)" s:width="4" s:height="40">
    <rect width="5" height="40" class="splitjoinBody" s:generic="body"/>
    <s:alias val="$_join_"/>
    <g s:x="5" s:y="20" s:pid="out"/>
    <g transform="translate(0,10)" s:x="0" s:y="10" s:pid="in0">
      <text x="-3" y="-4" class="inputPortLabel">0:1</text>
    </g>
  </g>
  <g s:type="join" transform="translate(135,469)" s:width="4" s:height="40">
    <rect width="5" height="40" class="splitjoinBody" s:generic="body"/>
    <s:alias val="$_join_"/>
    <g s:x="5" s:y="20" s:pid="out"/>
    <g transform="translate(0,10)" s:x="0" s:y="10" s:pid="in0">
      <text x="-3" y="-4" class="inputPortLabel">0</text>
    </g>
    <g transform="translate(0,30)" s:x="0" s:y="10" s:pid="in0">
      <text x="-3" y="-4" class="inputPortLabel">1</text>
    </g>
  </g>
  <g s:type="join" transform="translate(208,561)" s:width="4" s:height="40">
    <rect width="5" height="40" class="splitjoinBody" s:generic="body"/>
    <s:alias val="$_join_"/>
    <g s:x="5" s:y="20" s:pid="out"/>
    <g transform="translate(0,10)" s:x="0" s:y="10" s:pid="in0">
      <text x="-3" y="-4" class="inputPortLabel">0:1</text>
    </g>
  </g>
  <g s:type="join" transform="translate(135,551)" s:width="4" s:height="40">
    <rect width="5" height="40" class="splitjoinBody" s:generic="body"/>
    <s:alias val="$_join_"/>
    <g s:x="5" s:y="20" s:pid="out"/>
    <g transform="translate(0,10)" s:x="0" s:y="10" s:pid="in0">
      <text x="-3" y="-4" class="inputPortLabel">0</text>
    </g>
    <g transform="translate(0,30)" s:x="0" s:y="10" s:pid="in0">
      <text x="-3" y="-4" class="inputPortLabel">1</text>
    </g>
  </g>
  <g s:type="join" transform="translate(207,643)" s:width="4" s:height="40">
    <rect width="5" height="40" class="splitjoinBody" s:generic="body"/>
    <s:alias val="$_join_"/>
    <g s:x="5" s:y="20" s:pid="out"/>
    <g transform="translate(0,10)" s:x="0" s:y="10" s:pid="in0">
      <text x="-3" y="-4" class="inputPortLabel">0</text>
    </g>
    <g transform="translate(0,30)" s:x="0" s:y="10" s:pid="in0">
      <text x="-3" y="-4" class="inputPortLabel">1:2</text>
    </g>
  </g>
  <g s:type="split" transform="translate(367,653.5)" s:width="5" s:height="40">
    <rect width="5" height="20" class="splitjoinBody" s:generic="body"/>
    <s:alias val="$_split_"/>
    <g s:x="0" s:y="20" s:pid="in"/>
    <g transform="translate(4,10)" s:x="4" s:y="10" s:pid="out0">
      <text x="5" y="-4">22</text>
    </g>
  </g>
  <g s:type="split" transform="translate(32,58)" s:width="5" s:height="40">
    <rect width="5" height="160" class="splitjoinBody" s:generic="body"/>
    <s:alias val="$_split_"/>
    <g s:x="0" s:y="20" s:pid="in"/>
    <g transform="translate(4,10)" s:x="4" s:y="10" s:pid="out0">
      <text x="5" y="-4">1</text>
    </g>
    <g transform="translate(4,30)" s:x="4" s:y="10" s:pid="out0">
      <text x="5" y="-4">0</text>
    </g>
    <g transform="translate(4,50)" s:x="4" s:y="10" s:pid="out0">
      <text x="5" y="-4">2</text>
    </g>
    <g transform="translate(4,70)" s:x="4" s:y="10" s:pid="out0">
      <text x="5" y="-4">3</text>
    </g>
    <g transform="translate(4,90)" s:x="4" s:y="10" s:pid="out0">
      <text x="5" y="-4">4</text>
    </g>
    <g transform="translate(4,110)" s:x="4" s:y="10" s:pid="out0">
      <text x="5" y="-4">5</text>
    </g>
    <g transform="translate(4,130)" s:x="4" s:y="10" s:pid="out0">
      <text x="5" y="-4">6</text>
    </g>
    <g transform="translate(4,150)" s:x="4" s:y="10" s:pid="out0">
      <text x="5" y="-4">7</text>
    </g>
  </g>
  <line x1="505" y1="180" x2="540" y2="180"/>
  <line x1="505" y1="180" x2="515" y2="180"/>
  <line x1="515" y1="180" x2="515" y2="808"/>
  <line x1="515" y1="808" x2="12" y2="808"/>
  <line x1="12" y1="808" x2="12" y2="78.5"/>
  <circle cx="515" cy="180" r="2" style="fill:#000"/>
  <line x1="12" y1="78.5" x2="32" y2="78.5"/>
  <line x1="372" y1="664" x2="395" y2="664"/>
  <line x1="395" y1="664" x2="395" y2="245"/>
  <circle cx="395" cy="664" r="2" style="fill:#000"/>
  <line x1="395" y1="245" x2="420" y2="245"/>
  <line x1="372" y1="664" x2="420" y2="664"/>
  <line x1="375" y1="225" x2="420" y2="225"/>
  <line x1="219" y1="275" x2="248" y2="275"/>
  <line x1="248" y1="275" x2="248" y2="26.5"/>
  <circle cx="248" cy="275" r="2" style="fill:#000"/>
  <line x1="248" y1="26.5" x2="270" y2="26.5"/>
  <line x1="219" y1="275" x2="248" y2="275"/>
  <line x1="248" y1="275" x2="248" y2="108.5"/>
  <circle cx="248" cy="108.5" r="2" style="fill:#000"/>
  <line x1="248" y1="108.5" x2="270" y2="108.5"/>
  <line x1="219" y1="275" x2="248" y2="275"/>
  <line x1="248" y1="275" x2="248" y2="190.5"/>
  <circle cx="248" cy="190.5" r="2" style="fill:#000"/>
  <line x1="248" y1="190.5" x2="270" y2="190.5"/>
  <line x1="219" y1="275" x2="270" y2="275"/>
  <line x1="219" y1="275" x2="248" y2="275"/>
  <line x1="248" y1="275" x2="248" y2="397.5"/>
  <circle cx="248" cy="397.5" r="2" style="fill:#000"/>
  <line x1="248" y1="397.5" x2="270" y2="397.5"/>
  <line x1="219" y1="275" x2="248" y2="275"/>
  <line x1="248" y1="275" x2="248" y2="479.5"/>
  <circle cx="248" cy="479.5" r="2" style="fill:#000"/>
  <line x1="248" y1="479.5" x2="270" y2="479.5"/>
  <line x1="219" y1="275" x2="248" y2="275"/>
  <line x1="248" y1="275" x2="248" y2="561.5"/>
  <circle cx="248" cy="561.5" r="2" style="fill:#000"/>
  <line x1="248" y1="561.5" x2="270" y2="561.5"/>
  <line x1="219" y1="275" x2="248" y2="275"/>
  <line x1="248" y1="275" x2="248" y2="643.5"/>
  <line x1="248" y1="643.5" x2="270" y2="643.5"/>
  <line x1="214" y1="46.5" x2="270" y2="46.5"/>
  <line x1="214" y1="128.5" x2="270" y2="128.5"/>
  <line x1="214" y1="210.5" x2="270" y2="210.5"/>
  <line x1="214" y1="340.5" x2="238" y2="340.5"/>
  <line x1="238" y1="340.5" x2="238" y2="295"/>
  <line x1="238" y1="295" x2="270" y2="295"/>
  <line x1="214" y1="417.5" x2="270" y2="417.5"/>
  <line x1="214" y1="499.5" x2="270" y2="499.5"/>
  <line x1="214" y1="581.5" x2="270" y2="581.5"/>
  <line x1="213" y1="663.5" x2="270" y2="663.5"/>
  <line x1="154" y1="723" x2="164" y2="723"/>
  <line x1="164" y1="723" x2="164" y2="797"/>
  <line x1="164" y1="797" x2="405" y2="797"/>
  <line x1="405" y1="797" x2="405" y2="644"/>
  <circle cx="164" cy="723" r="2" style="fill:#000"/>
  <line x1="405" y1="644" x2="420" y2="644"/>
  <line x1="154" y1="723" x2="198.33333333333334" y2="723"/>
  <line x1="305" y1="715.5" x2="337" y2="715.5"/>
  <line x1="337" y1="715.5" x2="337" y2="693"/>
  <line x1="337" y1="693" x2="174" y2="693"/>
  <line x1="174" y1="693" x2="174" y2="708"/>
  <circle cx="337" cy="715.5" r="2" style="fill:#000"/>
  <line x1="174" y1="708" x2="198.33333333333334" y2="708"/>
  <line x1="305" y1="715.5" x2="367.5" y2="715.5"/>
  <line x1="367.5" y1="715.5" x2="367.5" y2="674.5"/>
  <line x1="217" y1="777" x2="238" y2="777"/>
  <line x1="238" y1="777" x2="238" y2="735.5"/>
  <line x1="238" y1="735.5" x2="275" y2="735.5"/>
  <line x1="220.33333333333334" y1="715.5" x2="275" y2="715.5"/>
  <line x1="450" y1="170" x2="485" y2="170"/>
  <line x1="450" y1="225" x2="460" y2="225"/>
  <line x1="460" y1="225" x2="460" y2="190"/>
  <line x1="460" y1="190" x2="485" y2="190"/>
  <line x1="450" y1="644" x2="495" y2="644"/>
  <line x1="495" y1="644" x2="495" y2="195"/>
  <line x1="301" y1="26.5" x2="369.5" y2="26.5"/>
  <line x1="369.5" y1="26.5" x2="369.5" y2="214.5"/>
  <line x1="301" y1="108.5" x2="347" y2="108.5"/>
  <line x1="347" y1="108.5" x2="347" y2="235"/>
  <line x1="347" y1="235" x2="369" y2="235"/>
  <line x1="301" y1="190.5" x2="337" y2="190.5"/>
  <line x1="337" y1="190.5" x2="337" y2="255"/>
  <line x1="337" y1="255" x2="369" y2="255"/>
  <line x1="301" y1="275" x2="369" y2="275"/>
  <line x1="301" y1="397.5" x2="337" y2="397.5"/>
  <line x1="337" y1="397.5" x2="337" y2="295"/>
  <line x1="337" y1="295" x2="369" y2="295"/>
  <line x1="301" y1="479.5" x2="347" y2="479.5"/>
  <line x1="347" y1="479.5" x2="347" y2="315"/>
  <line x1="347" y1="315" x2="369" y2="315"/>
  <line x1="301" y1="561.5" x2="357" y2="561.5"/>
  <line x1="357" y1="561.5" x2="357" y2="335"/>
  <line x1="357" y1="335" x2="369" y2="335"/>
  <line x1="301" y1="643.5" x2="369.5" y2="643.5"/>
  <line x1="369.5" y1="643.5" x2="369.5" y2="355.5"/>
  <line x1="141" y1="36.5" x2="208" y2="36.5"/>
  <line x1="36.5" y1="68" x2="36.5" y2="26.5"/>
  <line x1="36.5" y1="26.5" x2="135" y2="26.5"/>
  <line x1="36.5" y1="68" x2="36.5" y2="26.5"/>
  <line x1="36.5" y1="26.5" x2="114" y2="26.5"/>
  <line x1="114" y1="26.5" x2="114" y2="128.5"/>
  <circle cx="114" cy="26.5" r="2" style="fill:#000"/>
  <line x1="114" y1="128.5" x2="135" y2="128.5"/>
  <line x1="37" y1="88.5" x2="104" y2="88.5"/>
  <line x1="104" y1="88.5" x2="104" y2="46.5"/>
  <circle cx="104" cy="88.5" r="2" style="fill:#000"/>
  <line x1="104" y1="46.5" x2="135" y2="46.5"/>
  <line x1="37" y1="88.5" x2="104" y2="88.5"/>
  <line x1="104" y1="88.5" x2="104" y2="148"/>
  <line x1="104" y1="148" x2="174" y2="148"/>
  <line x1="174" y1="148" x2="174" y2="653.5"/>
  <line x1="174" y1="653.5" x2="207" y2="653.5"/>
  <line x1="141" y1="118.5" x2="208" y2="118.5"/>
  <line x1="37" y1="108.5" x2="135" y2="108.5"/>
  <line x1="37" y1="108.5" x2="94" y2="108.5"/>
  <line x1="94" y1="108.5" x2="94" y2="210.5"/>
  <circle cx="94" cy="108.5" r="2" style="fill:#000"/>
  <line x1="94" y1="210.5" x2="135" y2="210.5"/>
  <line x1="141" y1="200.5" x2="208" y2="200.5"/>
  <line x1="37" y1="128.5" x2="84" y2="128.5"/>
  <line x1="84" y1="128.5" x2="84" y2="190.5"/>
  <circle cx="84" cy="190.5" r="2" style="fill:#000"/>
  <line x1="84" y1="190.5" x2="135" y2="190.5"/>
  <line x1="37" y1="128.5" x2="84" y2="128.5"/>
  <line x1="84" y1="128.5" x2="84" y2="340.5"/>
  <line x1="84" y1="340.5" x2="135" y2="340.5"/>
  <line x1="141" y1="330.5" x2="208" y2="330.5"/>
  <line x1="37" y1="148.5" x2="74" y2="148.5"/>
  <line x1="74" y1="148.5" x2="74" y2="320.5"/>
  <circle cx="74" cy="320.5" r="2" style="fill:#000"/>
  <line x1="74" y1="320.5" x2="135" y2="320.5"/>
  <line x1="37" y1="148.5" x2="74" y2="148.5"/>
  <line x1="74" y1="148.5" x2="74" y2="417.5"/>
  <line x1="74" y1="417.5" x2="135" y2="417.5"/>
  <line x1="141" y1="407.5" x2="208" y2="407.5"/>
  <line x1="37" y1="168.5" x2="64" y2="168.5"/>
  <line x1="64" y1="168.5" x2="64" y2="397.5"/>
  <circle cx="64" cy="397.5" r="2" style="fill:#000"/>
  <line x1="64" y1="397.5" x2="135" y2="397.5"/>
  <line x1="37" y1="168.5" x2="64" y2="168.5"/>
  <line x1="64" y1="168.5" x2="64" y2="499.5"/>
  <line x1="64" y1="499.5" x2="135" y2="499.5"/>
  <line x1="141" y1="489.5" x2="208" y2="489.5"/>
  <line x1="37" y1="188.5" x2="54" y2="188.5"/>
  <line x1="54" y1="188.5" x2="54" y2="479.5"/>
  <circle cx="54" cy="479.5" r="2" style="fill:#000"/>
  <line x1="54" y1="479.5" x2="135" y2="479.5"/>
  <line x1="37" y1="188.5" x2="54" y2="188.5"/>
  <line x1="54" y1="188.5" x2="54" y2="581.5"/>
  <line x1="54" y1="581.5" x2="135" y2="581.5"/>
  <line x1="141" y1="571.5" x2="208" y2="571.5"/>
  <line x1="141" y1="571.5" x2="164" y2="571.5"/>
  <line x1="164" y1="571.5" x2="164" y2="673.5"/>
  <circle cx="164" cy="571.5" r="2" style="fill:#000"/>
  <line x1="164" y1="673.5" x2="207" y2="673.5"/>
  <line x1="36.5" y1="209" x2="36.5" y2="561.5"/>
  <line x1="36.5" y1="561.5" x2="135" y2="561.5"/>
</svg>
