<svg xmlns="http://www.w3.org/2000/svg" xmlns:xlink="http://www.w3.org/1999/xlink" xmlns:s="https://github.com/nturley/netlistsvg" width="799" height="152.5">
  <style>svg {
    stroke:#000;
    fill:none;
  }
  text {
    fill:#000;
    stroke:none;
    font-size:10px;
    font-weight: bold;
    font-family: "Courier New", monospace;
  }
  .nodelabel {
    text-anchor: middle;
  }
  .inputPortLabel {
    text-anchor: end;
  }
  .splitjoinBody {
    fill:#000;
  }</style>
  <g s:type="inputExt" transform="translate(12,81.5)" s:width="30" s:height="20">
    <text x="15" y="-4" class="nodelabel" s:attribute="ref">clk</text>
    <s:alias val="$_inputExt_"/>
    <path d="M0,0 L0,20 L15,20 L30,10 L15,0 Z"/>
    <g s:x="28" s:y="10" s:pid="Y"/>
  </g>
  <g s:type="outputExt" transform="translate(735,32)" s:width="30" s:height="20">
    <text x="15" y="-4" class="nodelabel" s:attribute="ref">data</text>
    <s:alias val="$_outputExt_"/>
    <path d="M30,0 L30,20 L15,20 L0,10 L15,0 Z"/>
    <g s:x="0" s:y="10" s:pid="A"/>
  </g>
  <g s:type="dff" transform="translate(735,87)" s:width="30" s:height="40">
    <s:alias val="$dff"/>
    <s:alias val="$_DFF_"/>
    <rect width="30" height="40" x="0" y="0"/>
    <path d="M0,35 L5,30 L0,25"/>
    <g s:x="30" s:y="10" s:pid="Q"/>
    <g s:x="0" s:y="30" s:pid="CLK"/>
    <g s:x="0" s:y="10" s:pid="D"/>
  </g>
  <g s:type="mux" transform="translate(421.6666666666667,22)" s:width="20" s:height="40">
    <s:alias val="$pmux"/>
    <s:alias val="$mux"/>
    <s:alias val="$_MUX_"/>
    <path d="M0,0 L20,10 L20,30 L0,40 Z"/>
    <g s:x="0" s:y="10" s:pid="A"/>
    <g s:x="0" s:y="30" s:pid="B"/>
    <g s:x="10" s:y="35" s:pid="S"/>
    <g s:x="20" s:y="20" s:pid="Y"/>
  </g>
  <g s:type="generic" transform="translate(505,86.5)" s:width="30" s:height="40">
    <text x="15" y="-4" class="nodelabel" s:attribute="ref">$paramod\cellAutomaton\WIDTH=8</text>
    <rect width="30" height="40" s:generic="body"/>
    <g transform="translate(0,10)" s:x="0" s:y="10" s:pid="in0">
      <text x="-3" y="-4" class="inputPortLabel">in</text>
    </g>
    <g transform="translate(0,30)" s:x="0" s:y="10" s:pid="in0">
      <text x="-3" y="-4" class="inputPortLabel">rule</text>
    </g>
    <g transform="translate(30,10)" s:x="30" s:y="10" s:pid="out0">
      <text x="5" y="-4" style="fill:#000; stroke:none">out</text>
    </g>
  </g>
  <g s:type="generic" transform="translate(330,81)" s:width="30" s:height="40">
    <text x="15" y="-4" class="nodelabel" s:attribute="ref">init</text>
    <rect width="30" height="20" s:generic="body"/>
    <g transform="translate(0,10)" s:x="0" s:y="10" s:pid="in0">
      <text x="-3" y="-4" class="inputPortLabel">clk</text>
    </g>
    <g transform="translate(30,10)" s:x="30" s:y="10" s:pid="out0">
      <text x="5" y="-4" style="fill:#000; stroke:none">ini</text>
    </g>
  </g>
  <g s:type="generic" transform="translate(123,81)" s:width="30" s:height="40">
    <text x="15" y="-4" class="nodelabel" s:attribute="ref">$paramod\prescaler\N=23</text>
    <rect width="30" height="20" s:generic="body"/>
    <g transform="translate(0,10)" s:x="0" s:y="10" s:pid="in0">
      <text x="-3" y="-4" class="inputPortLabel">clk_in</text>
    </g>
    <g transform="translate(30,10)" s:x="30" s:y="10" s:pid="out0">
      <text x="5" y="-4" style="fill:#000; stroke:none">clk_out</text>
    </g>
  </g>
  <g s:type="constant" transform="translate(330,22)" s:width="30" s:height="20">
    <text x="15" y="-4" class="nodelabel" s:attribute="ref">0x1</text>
    <s:alias val="$_constant_"/>
    <rect width="30" height="20"/>
    <g s:x="30" s:y="10" s:pid="Y"/>
  </g>
  <g s:type="constant" transform="translate(415,107)" s:width="30" s:height="20">
    <text x="15" y="-4" class="nodelabel" s:attribute="ref">0x81</text>
    <s:alias val="$_constant_"/>
    <rect width="30" height="20"/>
    <g s:x="30" s:y="10" s:pid="Y"/>
  </g>
  <line x1="441.6666666666667" y1="42" x2="735" y2="42"/>
  <line x1="441.6666666666667" y1="42" x2="455" y2="42"/>
  <line x1="455" y1="42" x2="455" y2="97"/>
  <circle cx="455" cy="42" r="2" style="fill:#000"/>
  <line x1="455" y1="97" x2="505" y2="97"/>
  <line x1="154" y1="91.5" x2="286" y2="91.5"/>
  <line x1="286" y1="91.5" x2="286" y2="139.5"/>
  <line x1="286" y1="139.5" x2="710" y2="139.5"/>
  <line x1="710" y1="139.5" x2="710" y2="117"/>
  <circle cx="286" cy="91.5" r="2" style="fill:#000"/>
  <line x1="710" y1="117" x2="735" y2="117"/>
  <line x1="154" y1="91.5" x2="330" y2="91.5"/>
  <line x1="536" y1="97" x2="735" y2="97"/>
  <line x1="360" y1="32" x2="421.6666666666667" y2="32"/>
  <line x1="765" y1="97" x2="787" y2="97"/>
  <line x1="787" y1="97" x2="787" y2="12"/>
  <line x1="787" y1="12" x2="390" y2="12"/>
  <line x1="390" y1="12" x2="390" y2="52"/>
  <line x1="390" y1="52" x2="421.6666666666667" y2="52"/>
  <line x1="361" y1="91.5" x2="431.6666666666667" y2="91.5"/>
  <line x1="431.6666666666667" y1="91.5" x2="431.6666666666667" y2="57"/>
  <line x1="445" y1="117" x2="505" y2="117"/>
  <line x1="40" y1="91.5" x2="123" y2="91.5"/>
</svg>
